<svg width="461" height="468" xmlns="http://www.w3.org/2000/svg" xmlns:xlink="http://www.w3.org/1999/xlink" overflow="hidden"><defs><clipPath id="clip0"><rect x="0" y="0" width="461" height="468"/></clipPath><clipPath id="clip1"><rect x="0" y="0" width="461" height="467"/></clipPath><clipPath id="clip2"><rect x="0" y="0" width="462" height="467"/></clipPath><linearGradient x1="189.704" y1="63.7954" x2="189.704" y2="130.096" gradientUnits="userSpaceOnUse" spreadMethod="pad" id="fill3"><stop offset="0" stop-color="#57D9A3" stop-opacity="1"/><stop offset="0.1822" stop-color="#50D7A9" stop-opacity="1"/><stop offset="0.4538" stop-color="#3BD3B8" stop-opacity="1"/><stop offset="0.7797" stop-color="#1ACCD1" stop-opacity="1"/><stop offset="1" stop-color="#00C7E5" stop-opacity="1"/></linearGradient><linearGradient x1="285.105" y1="454.474" x2="104.522" y2="273.892" gradientUnits="userSpaceOnUse" spreadMethod="pad" id="fill4"><stop offset="0" stop-color="#0052CC" stop-opacity="1"/><stop offset="1" stop-color="#0065FF" stop-opacity="1"/></linearGradient><linearGradient x1="104.669" y1="286.202" x2="286.748" y2="104.124" gradientUnits="userSpaceOnUse" spreadMethod="pad" id="fill5"><stop offset="0" stop-color="#0052CC" stop-opacity="1"/><stop offset="1" stop-color="#0065FF" stop-opacity="1"/></linearGradient><linearGradient x1="454.962" y1="274.648" x2="274.328" y2="455.283" gradientUnits="userSpaceOnUse" spreadMethod="pad" id="fill6"><stop offset="0" stop-color="#0052CC" stop-opacity="1"/><stop offset="1" stop-color="#0065FF" stop-opacity="1"/></linearGradient><linearGradient x1="264.551" y1="189.081" x2="461.594" y2="189.081" gradientUnits="userSpaceOnUse" spreadMethod="pad" id="fill7"><stop offset="0" stop-color="#0052CC" stop-opacity="1"/><stop offset="1" stop-color="#0065FF" stop-opacity="1"/></linearGradient><clipPath id="clip8"><path d="M230.901 137.657C285.049 137.657 328.944 181.552 328.944 235.699 328.944 289.846 285.049 333.741 230.901 333.741 176.753 333.741 132.857 289.846 132.857 235.699 132.857 209.704 143.194 184.745 161.57 166.369 179.918 147.937 204.877 137.573 230.901 137.657M230.901 32.6116C118.739 32.6116 27.8107 123.539 27.8107 235.699 27.8107 347.859 118.739 438.786 230.901 438.786 343.062 438.786 433.99 347.859 433.99 235.699 433.99 123.539 343.062 32.6116 230.901 32.6116Z" fill-rule="nonzero" clip-rule="nonzero"/></clipPath></defs><g clip-path="url(#clip0)"><g clip-path="url(#clip1)"><g clip-path="url(#clip2)"><path d="M280.12 504.217C156.643 504.105 56.6684 403.906 56.7804 280.429 56.8925 156.951 157.092 56.9765 280.569 57.0885 404.046 57.2006 504.021 157.4 503.909 280.877 503.825 370.627 450.041 451.638 367.378 486.569 339.758 498.278 310.093 504.273 280.12 504.217ZM280.12 182.078C225.973 182.078 182.078 225.973 182.078 280.12 182.078 334.268 225.973 378.163 280.12 378.163 334.268 378.163 378.163 334.268 378.163 280.12 378.163 254.125 367.826 229.195 349.45 210.791 331.102 192.359 306.144 181.994 280.12 182.078Z" fill="#FFFFFF" fill-rule="nonzero" fill-opacity="1" transform="matrix(1.00001 0 0 1 -49.2234 -44.4215)"/><path d="M280.12 161.069C311.914 161.069 341.803 173.451 364.297 195.944 386.79 218.438 399.172 248.327 399.172 280.12 399.172 311.914 386.79 341.803 364.297 364.297 341.803 386.79 311.914 399.172 280.12 399.172 248.327 399.172 218.438 386.79 195.944 364.297 173.451 341.803 161.069 311.914 161.069 280.12 161.069 248.327 173.451 218.438 195.944 195.944 218.438 173.451 248.327 161.069 280.12 161.069M280.12 56.0241C156.363 56.0241 56.0241 156.363 56.0241 280.12 56.0241 403.878 156.363 504.217 280.12 504.217 403.878 504.217 504.217 403.878 504.217 280.12 504.217 156.363 403.878 56.0241 280.12 56.0241Z" fill="#B2D4FF" fill-rule="nonzero" fill-opacity="0.2" transform="matrix(1.00001 0 0 1 -49.2234 -44.4215)"/><path d="M280.12 98.0422C375.669 98.0422 454.019 171.63 461.582 265.218L481.975 257.879C470.91 156.167 384.773 77.0331 280.12 77.0331 272.697 77.0331 265.246 77.4253 257.879 78.2376L265.218 98.6304C270.12 98.2382 275.106 98.0422 280.12 98.0422Z" fill="#57D9A3" fill-rule="nonzero" fill-opacity="1" transform="matrix(1.00001 0 0 1 -49.2234 -44.4215)"/><path d="M482.003 257.879 461.61 265.218C462.003 270.148 462.199 275.106 462.227 280.12 462.227 375.669 388.639 454.019 295.051 461.582L302.39 481.975C404.074 470.882 483.236 384.745 483.236 280.092 483.208 272.697 482.816 265.246 482.003 257.879Z" fill="#6554C0" fill-rule="nonzero" fill-opacity="1" transform="matrix(1.00001 0 0 1 -49.2234 -44.4215)"/><path d="M295.023 461.582C290.093 461.975 285.135 462.171 280.12 462.199 184.571 462.199 106.222 388.611 98.6584 295.023 98.2662 290.093 98.0702 285.135 98.0422 280.12 98.0422 184.571 171.63 106.222 265.218 98.6584L257.879 78.2656C156.167 89.3304 77.0331 175.467 77.0331 280.12 77.0331 287.544 77.4253 294.995 78.2376 302.362 89.3304 404.046 175.467 483.208 280.12 483.208 287.544 483.208 294.995 482.816 302.362 482.003L295.023 461.582Z" fill="url(#fill3)" fill-rule="nonzero" transform="matrix(1.00001 0 0 1 -49.2234 -44.4215)"/><path d="M295.695 376.93C290.541 377.742 285.331 378.163 280.12 378.163 231.996 378.163 190.958 343.204 183.311 295.695L140.06 280.12 98.6584 295.023C106.222 388.611 184.571 462.199 280.12 462.199 285.135 462.199 290.121 462.003 295.023 461.582L280.12 420.181 295.695 376.93Z" fill="url(#fill4)" fill-rule="nonzero" transform="matrix(1.00001 0 0 1 -49.2234 -44.4215)"/><path d="M183.311 295.695C182.498 290.541 182.078 285.331 182.078 280.12 182.078 231.996 217.037 190.958 264.546 183.311L280.12 140.06 265.218 98.6584C171.63 106.222 98.0422 184.571 98.0422 280.12 98.0422 285.135 98.2382 290.121 98.6584 295.023L140.06 280.12 183.311 295.695Z" fill="url(#fill5)" fill-rule="nonzero" transform="matrix(1.00001 0 0 1 -49.2234 -44.4215)"/><path d="M376.93 264.546C377.742 269.7 378.163 274.91 378.163 280.12 378.163 328.245 343.204 369.283 295.695 376.93L280.12 420.181 295.023 461.582C388.611 453.991 462.199 375.642 462.199 280.12 462.199 275.106 462.003 270.12 461.582 265.218L420.181 280.12 376.93 264.546Z" fill="url(#fill6)" fill-rule="nonzero" transform="matrix(1.00001 0 0 1 -49.2234 -44.4215)"/><path d="M280.12 98.0422C275.106 98.0422 270.12 98.2382 265.218 98.6584L280.12 140.06 264.546 183.311C269.7 182.498 274.91 182.078 280.12 182.078 328.245 182.078 369.283 217.037 376.93 264.546L420.181 280.12 461.582 265.218C454.019 171.63 375.669 98.0422 280.12 98.0422Z" fill="url(#fill7)" fill-rule="nonzero" transform="matrix(1.00001 0 0 1 -49.2234 -44.4215)"/><g clip-path="url(#clip8)"><path d="M7.81536 326.256 8.29156 327.573 7.81536 326.256Z" fill="#FFFFFF" fill-rule="nonzero" fill-opacity="1" transform="matrix(1.00001 0 0 1 -49.2234 -44.4215)"/><path d="M192.163 297.376 140.536 278.804 140.06 278.636 98.5464 293.566C98.5744 294.042 98.6024 294.547 98.6584 295.023 98.6864 295.499 98.7425 295.975 98.7985 296.479L140.088 281.605 192.863 300.597C192.583 299.533 192.359 298.468 192.163 297.376Z" fill="#FFFFFF" fill-rule="nonzero" fill-opacity="1" transform="matrix(1.00001 0 0 1 -49.2234 -44.4215)"/><path d="M262.865 192.163 281.437 140.536 281.605 140.06 255.638 67.9012C254.686 68.0132 253.733 68.1253 252.781 68.2373L278.636 140.06 259.644 192.835C260.708 192.583 261.773 192.359 262.865 192.163Z" fill="#FFFFFF" fill-rule="nonzero" fill-opacity="1" transform="matrix(1.00001 0 0 1 -49.2234 -44.4215)"/><path d="M367.406 259.644C367.658 260.708 367.882 261.801 368.106 262.865L419.732 281.437 420.209 281.605 492.368 255.638C492.256 254.686 492.144 253.733 492.032 252.781L420.181 278.636 367.406 259.644Z" fill="#FFFFFF" fill-rule="nonzero" fill-opacity="1" transform="matrix(1.00001 0 0 1 -49.2234 -44.4215)"/><path d="M300.597 367.406C299.533 367.658 298.44 367.882 297.376 368.106L278.804 419.732 278.636 420.209 304.603 492.368C305.555 492.256 306.508 492.144 307.46 492.032L281.605 420.237 300.597 367.406Z" fill="#FFFFFF" fill-rule="nonzero" fill-opacity="1" transform="matrix(1.00001 0 0 1 -49.2234 -44.4215)"/></g><path d="M340.262 151.769C340.374 151.349 340.318 150.565 339.422 150.145 338.75 149.836 338.077 150.061 337.881 150.537 337.713 150.929 337.797 151.377 338.301 151.713L339.226 152.358C340.43 153.226 340.738 154.402 340.262 155.411 339.758 156.531 338.329 157.232 336.621 156.447 334.716 155.579 334.436 153.954 334.772 152.862L336.229 153.114C335.976 153.842 336.173 154.739 337.181 155.187 337.937 155.523 338.526 155.355 338.75 154.823 338.946 154.402 338.778 153.926 338.273 153.562L337.349 152.89C336.313 152.133 335.892 151.041 336.397 149.948 336.985 148.66 338.582 148.212 339.954 148.828 341.719 149.64 341.887 150.985 341.691 151.881L340.262 151.769Z" fill="#FFFFFF" fill-rule="nonzero" fill-opacity="1" transform="matrix(1.00001 0 0 1 -49.2234 -44.4215)"/><path d="M343.344 156.195 341.971 158.856 340.598 158.156 344.268 151.097 346.901 152.47C348.302 153.198 348.75 154.598 348.078 155.859 347.405 157.148 346.005 157.568 344.632 156.839L343.344 156.195ZM345.052 155.607C345.725 155.971 346.369 155.775 346.677 155.187 347.013 154.57 346.789 153.954 346.089 153.59L344.996 153.03 343.96 155.047 345.052 155.607Z" fill="#FFFFFF" fill-rule="nonzero" fill-opacity="1" transform="matrix(1.00001 0 0 1 -49.2234 -44.4215)"/><path d="M350.263 159.921 349.562 159.501 348.022 162.134 346.677 161.349 350.711 154.486 353.4 156.055C354.745 156.839 355.053 158.268 354.352 159.445 353.792 160.397 352.812 160.789 351.747 160.537L351.579 164.207 350.095 163.338 350.263 159.921ZM351.327 158.996C351.999 159.389 352.616 159.248 352.952 158.688 353.288 158.1 353.12 157.512 352.448 157.092L351.355 156.447 350.235 158.352 351.327 158.996Z" fill="#FFFFFF" fill-rule="nonzero" fill-opacity="1" transform="matrix(1.00001 0 0 1 -49.2234 -44.4215)"/><path d="M352.84 165.075 357.126 158.38 358.442 159.22 354.156 165.915 352.84 165.075Z" fill="#FFFFFF" fill-rule="nonzero" fill-opacity="1" transform="matrix(1.00001 0 0 1 -49.2234 -44.4215)"/><path d="M360.039 169.949 360.347 163.254 357.098 167.848 355.837 166.952 360.431 160.453 362 161.573 361.663 167.764 364.689 163.478 365.949 164.375 361.355 170.873 360.039 169.949Z" fill="#FFFFFF" fill-rule="nonzero" fill-opacity="1" transform="matrix(1.00001 0 0 1 -49.2234 -44.4215)"/><path d="M369.535 169.081 365.501 174.151 364.297 173.17 368.33 168.1 366.37 166.532 367.294 165.383 372.448 169.473 371.524 170.621 369.535 169.081Z" fill="#FFFFFF" fill-rule="nonzero" fill-opacity="1" transform="matrix(1.00001 0 0 1 -49.2234 -44.4215)"/><path d="M373.821 177.344 371.804 179.529 370.655 178.493 376.034 172.666 378.219 174.683C379.367 175.748 379.423 177.232 378.443 178.269 377.462 179.333 376.006 179.389 374.857 178.325L373.821 177.344ZM375.642 177.204C376.202 177.736 376.846 177.708 377.322 177.204 377.798 176.672 377.742 176.056 377.182 175.523L376.286 174.683 374.745 176.364 375.642 177.204Z" fill="#FFFFFF" fill-rule="nonzero" fill-opacity="1" transform="matrix(1.00001 0 0 1 -49.2234 -44.4215)"/><path d="M375.698 183.199 381.356 177.624 382.448 178.717 377.826 183.255 380.319 185.776 379.255 186.812 375.698 183.199Z" fill="#FFFFFF" fill-rule="nonzero" fill-opacity="1" transform="matrix(1.00001 0 0 1 -49.2234 -44.4215)"/><path d="M384.689 190.202 382.56 187.793 380.768 188.493 379.675 187.261 387.659 184.291 388.835 185.636 384.885 193.143 383.765 191.882 384.689 190.202ZM383.961 187.232 385.418 188.885 386.958 186.084 383.961 187.232Z" fill="#FFFFFF" fill-rule="nonzero" fill-opacity="1" transform="matrix(1.00001 0 0 1 -49.2234 -44.4215)"/><path d="M388.751 198.101 390.992 191.798 386.538 195.244 385.586 194.011 391.86 189.137 393.037 190.65 390.908 196.476 395.054 193.255 396.006 194.488 389.732 199.362 388.751 198.101Z" fill="#FFFFFF" fill-rule="nonzero" fill-opacity="1" transform="matrix(1.00001 0 0 1 -49.2234 -44.4215)"/><path d="M393.765 205.188 396.398 199.026 391.748 202.191 390.88 200.902 397.463 196.448 398.555 198.045 396.062 203.732 400.404 200.79 401.273 202.079 394.69 206.533 393.765 205.188Z" fill="#FFFFFF" fill-rule="nonzero" fill-opacity="1" transform="matrix(1.00001 0 0 1 -49.2234 -44.4215)"/><path d="M395.698 208.214 402.449 204.04 403.261 205.384 396.51 209.558 395.698 208.214Z" fill="#FFFFFF" fill-rule="nonzero" fill-opacity="1" transform="matrix(1.00001 0 0 1 -49.2234 -44.4215)"/><path d="M400.068 215.749 403.233 209.866 398.303 212.611 397.547 211.267 404.494 207.401 405.418 209.082 402.421 214.516 407.015 211.967 407.771 213.312 400.824 217.177 400.068 215.749Z" fill="#FFFFFF" fill-rule="nonzero" fill-opacity="1" transform="matrix(1.00001 0 0 1 -49.2234 -44.4215)"/><path d="M404.27 224.208 405.054 223.732C404.41 223.648 403.598 223.172 403.093 222.079 402.169 220.147 402.813 217.822 405.138 216.729 407.463 215.637 409.704 216.701 410.629 218.634 411.525 220.511 410.909 222.079 409.984 222.948L408.864 221.827C409.424 221.351 409.872 220.399 409.312 219.222 408.808 218.13 407.491 217.317 405.81 218.13 404.186 218.886 403.85 220.371 404.41 221.575 405.026 222.892 406.175 223.004 406.707 222.836L405.642 220.567 406.847 219.979 408.556 223.564 404.83 225.329 404.27 224.208Z" fill="#FFFFFF" fill-rule="nonzero" fill-opacity="1" transform="matrix(1.00001 0 0 1 -49.2234 -44.4215)"/><path d="M157.708 208.69C157.288 208.55 156.531 208.522 156.027 209.39 155.663 210.034 155.831 210.707 156.279 210.959 156.671 211.183 157.092 211.099 157.484 210.651L158.212 209.782C159.164 208.662 160.369 208.466 161.349 209.026 162.414 209.642 162.974 211.127 162.05 212.723 161.013 214.544 159.361 214.684 158.324 214.236L158.716 212.807C159.445 213.144 160.313 213.004 160.873 212.051 161.293 211.323 161.153 210.735 160.677 210.454 160.285 210.23 159.809 210.342 159.389 210.819L158.632 211.659C157.792 212.639 156.671 212.948 155.635 212.331 154.402 211.631 154.094 210.006 154.851 208.69 155.803 207.009 157.176 206.953 158.044 207.233L157.708 208.69Z" fill="#FFFFFF" fill-rule="nonzero" fill-opacity="1" transform="matrix(1.00001 0 0 1 -49.2234 -44.4215)"/><path d="M162.414 206.029 164.935 207.653 164.095 208.942 157.4 204.656 158.996 202.163C159.837 200.846 161.293 200.538 162.498 201.295 163.702 202.079 164.011 203.507 163.17 204.824L162.414 206.029ZM161.938 204.264C162.358 203.62 162.218 202.975 161.658 202.611 161.069 202.219 160.453 202.387 160.033 203.031L159.361 204.068 161.265 205.3 161.938 204.264Z" fill="#FFFFFF" fill-rule="nonzero" fill-opacity="1" transform="matrix(1.00001 0 0 1 -49.2234 -44.4215)"/><path d="M166.728 199.446 166.251 200.09 168.745 201.883 167.848 203.143 161.377 198.521 163.17 196C164.067 194.74 165.495 194.572 166.644 195.356 167.54 196 167.848 197.009 167.484 198.045L171.126 198.549 170.117 199.95 166.728 199.446ZM165.915 198.297C166.364 197.653 166.279 197.037 165.747 196.645 165.187 196.252 164.571 196.364 164.123 197.009L163.394 198.017 165.187 199.306 165.915 198.297Z" fill="#FFFFFF" fill-rule="nonzero" fill-opacity="1" transform="matrix(1.00001 0 0 1 -49.2234 -44.4215)"/><path d="M172.078 197.345 165.803 192.471 166.756 191.238 173.03 196.112 172.078 197.345Z" fill="#FFFFFF" fill-rule="nonzero" fill-opacity="1" transform="matrix(1.00001 0 0 1 -49.2234 -44.4215)"/><path d="M177.568 190.622 170.929 189.726 175.215 193.367 174.207 194.544 168.156 189.389 169.417 187.933 175.551 188.829 171.546 185.412 172.554 184.235 178.605 189.389 177.568 190.622Z" fill="#FFFFFF" fill-rule="nonzero" fill-opacity="1" transform="matrix(1.00001 0 0 1 -49.2234 -44.4215)"/><path d="M177.568 181.098 182.246 185.58 181.182 186.7 176.504 182.218 174.767 184.039 173.703 183.031 178.241 178.269 179.305 179.277 177.568 181.098Z" fill="#FFFFFF" fill-rule="nonzero" fill-opacity="1" transform="matrix(1.00001 0 0 1 -49.2234 -44.4215)"/><path d="M186.756 176.952 186.168 177.484 188.213 179.753 187.064 180.79 181.742 174.907 184.039 172.834C185.188 171.798 186.644 171.938 187.569 172.946 188.325 173.759 188.381 174.823 187.821 175.748L191.266 177.008 189.978 178.157 186.756 176.952ZM186.196 175.664C186.784 175.131 186.812 174.487 186.392 174.011 185.944 173.507 185.3 173.507 184.739 174.011L183.815 174.851 185.3 176.476 186.196 175.664Z" fill="#FFFFFF" fill-rule="nonzero" fill-opacity="1" transform="matrix(1.00001 0 0 1 -49.2234 -44.4215)"/><path d="M192.387 176.056 187.373 169.893 191.238 166.756 192.163 167.876 189.501 170.033 190.65 171.434 193.059 169.473 193.927 170.537 191.518 172.498 192.667 173.927 195.328 171.77 196.252 172.89 192.387 176.056Z" fill="#FFFFFF" fill-rule="nonzero" fill-opacity="1" transform="matrix(1.00001 0 0 1 -49.2234 -44.4215)"/><path d="M196.532 164.627 200.37 169.837 199.11 170.761 195.272 165.551 193.255 167.036 192.387 165.859 197.681 161.966 198.549 163.142 196.532 164.627Z" fill="#FFFFFF" fill-rule="nonzero" fill-opacity="1" transform="matrix(1.00001 0 0 1 -49.2234 -44.4215)"/><path d="M203.704 163.814 203.031 164.263 204.712 166.812 203.423 167.652 199.054 161.013 201.659 159.304C202.947 158.464 204.348 158.8 205.104 159.949 205.72 160.873 205.636 161.938 204.936 162.75L208.129 164.543 206.701 165.495 203.704 163.814ZM203.339 162.47C203.984 162.05 204.124 161.405 203.788 160.873 203.423 160.313 202.807 160.201 202.135 160.621L201.098 161.321 202.303 163.17 203.339 162.47Z" fill="#FFFFFF" fill-rule="nonzero" fill-opacity="1" transform="matrix(1.00001 0 0 1 -49.2234 -44.4215)"/><path d="M208.382 154.991C210.258 153.926 212.723 154.318 213.984 156.559 215.245 158.772 214.376 161.097 212.499 162.19 210.623 163.254 208.186 162.862 206.897 160.649 205.636 158.408 206.533 156.083 208.382 154.991ZM211.771 160.873C212.835 160.257 213.508 158.884 212.611 157.344 211.715 155.803 210.202 155.663 209.138 156.279 208.073 156.895 207.401 158.24 208.298 159.809 209.194 161.377 210.707 161.489 211.771 160.873Z" fill="#FFFFFF" fill-rule="nonzero" fill-opacity="1" transform="matrix(1.00001 0 0 1 -49.2234 -44.4215)"/><path d="M158.604 346.425C158.94 346.145 159.389 345.501 158.912 344.632 158.548 343.96 157.904 343.764 157.428 344.016 157.036 344.212 156.867 344.632 157.036 345.192L157.372 346.285C157.792 347.685 157.344 348.806 156.335 349.338 155.271 349.898 153.702 349.59 152.834 347.966 151.853 346.117 152.61 344.66 153.534 344.016L154.542 345.108C153.87 345.529 153.506 346.341 154.038 347.349 154.43 348.078 155.019 348.302 155.495 348.022 155.887 347.798 156.055 347.321 155.859 346.733L155.523 345.641C155.159 344.408 155.495 343.288 156.559 342.727 157.792 342.055 159.361 342.671 160.061 343.988 160.957 345.697 160.285 346.901 159.585 347.461L158.604 346.425Z" fill="#FFFFFF" fill-rule="nonzero" fill-opacity="1" transform="matrix(1.00001 0 0 1 -49.2234 -44.4215)"/><path d="M158.632 351.803 156.055 353.344 155.271 352.027 162.078 347.938 163.618 350.487C164.431 351.831 164.067 353.26 162.834 353.988 161.601 354.745 160.173 354.38 159.361 353.036L158.632 351.803ZM160.397 352.167C160.789 352.84 161.433 353.008 161.994 352.644 162.61 352.279 162.722 351.663 162.33 350.991L161.714 349.954 159.753 351.131 160.397 352.167Z" fill="#FFFFFF" fill-rule="nonzero" fill-opacity="1" transform="matrix(1.00001 0 0 1 -49.2234 -44.4215)"/><path d="M162.918 358.498 162.47 357.826 159.921 359.535 159.052 358.246 165.635 353.82 167.372 356.397C168.24 357.686 167.904 359.086 166.756 359.871 165.831 360.487 164.767 360.431 163.954 359.731L162.218 362.952 161.265 361.523 162.918 358.498ZM164.291 358.106C164.739 358.75 165.355 358.89 165.887 358.526 166.448 358.162 166.56 357.518 166.111 356.873L165.411 355.837 163.59 357.069 164.291 358.106Z" fill="#FFFFFF" fill-rule="nonzero" fill-opacity="1" transform="matrix(1.00001 0 0 1 -49.2234 -44.4215)"/><path d="M163.31 364.409 169.725 359.731 170.649 360.991 164.235 365.669 163.31 364.409Z" fill="#FFFFFF" fill-rule="nonzero" fill-opacity="1" transform="matrix(1.00001 0 0 1 -49.2234 -44.4215)"/><path d="M168.829 371.58 170.957 365.249 166.56 368.779 165.579 367.574 171.77 362.616 172.974 364.129 170.957 369.983 175.075 366.678 176.056 367.882 169.865 372.84 168.829 371.58Z" fill="#FFFFFF" fill-rule="nonzero" fill-opacity="1" transform="matrix(1.00001 0 0 1 -49.2234 -44.4215)"/><path d="M178.465 372.784 173.647 377.126 172.61 375.978 177.428 371.636 175.748 369.759 176.84 368.779 181.238 373.681 180.145 374.661 178.465 372.784Z" fill="#FFFFFF" fill-rule="nonzero" fill-opacity="1" transform="matrix(1.00001 0 0 1 -49.2234 -44.4215)"/><path d="M182.526 381.86 181.938 381.3 179.837 383.513 178.717 382.448 184.207 376.706 186.448 378.863C187.569 379.927 187.541 381.384 186.588 382.364 185.832 383.177 184.767 383.317 183.815 382.813L182.807 386.342 181.546 385.138 182.526 381.86ZM183.787 381.188C184.347 381.72 184.992 381.72 185.44 381.244 185.916 380.768 185.888 380.123 185.3 379.591L184.403 378.723 182.891 380.319 183.787 381.188Z" fill="#FFFFFF" fill-rule="nonzero" fill-opacity="1" transform="matrix(1.00001 0 0 1 -49.2234 -44.4215)"/><path d="M184.207 387.603 189.389 381.58 193.143 384.829 192.191 385.922 189.586 383.681 188.409 385.054 190.762 387.07 189.866 388.107 187.513 386.09 186.308 387.491 188.913 389.732 187.961 390.824 184.207 387.603Z" fill="#FFFFFF" fill-rule="nonzero" fill-opacity="1" transform="matrix(1.00001 0 0 1 -49.2234 -44.4215)"/><path d="M198.465 389.003 199.754 390.012 192.555 394.494 191.294 393.513 193.843 385.446 195.188 386.482 193.199 392.421 198.465 389.003Z" fill="#FFFFFF" fill-rule="nonzero" fill-opacity="1" transform="matrix(1.00001 0 0 1 -49.2234 -44.4215)"/><path d="M196.14 397.155 200.734 390.684 202.023 391.58 197.429 398.051 196.14 397.155Z" fill="#FFFFFF" fill-rule="nonzero" fill-opacity="1" transform="matrix(1.00001 0 0 1 -49.2234 -44.4215)"/><path d="M199.306 399.396 203.648 392.729 207.821 395.446 207.037 396.651 204.18 394.774 203.171 396.286 205.776 397.995 205.02 399.144 202.415 397.435 201.407 398.976 204.264 400.852 203.479 402.057 199.306 399.396Z" fill="#FFFFFF" fill-rule="nonzero" fill-opacity="1" transform="matrix(1.00001 0 0 1 -49.2234 -44.4215)"/><path d="M216.925 400.74 218.298 401.525 212.499 407.379 211.127 406.595 212.331 400.768 207.961 404.802 206.561 404.018 208.55 396.006 209.978 396.819 208.55 402.309 212.779 398.415 214.18 399.2 213.032 404.858 216.925 400.74Z" fill="#FFFFFF" fill-rule="nonzero" fill-opacity="1" transform="matrix(1.00001 0 0 1 -49.2234 -44.4215)"/><path d="M422.31 407.295C422.029 407.127 421.469 406.987 420.965 407.547 420.601 407.967 420.601 408.472 420.909 408.752 421.161 408.976 421.497 409.004 421.833 408.724L422.506 408.22C423.402 407.547 424.298 407.603 424.915 408.163 425.587 408.78 425.755 409.956 424.831 410.993 423.766 412.169 422.562 412.001 421.861 411.497L422.366 410.516C422.842 410.881 423.514 410.937 424.074 410.292 424.495 409.844 424.495 409.368 424.186 409.088 423.934 408.864 423.57 408.864 423.178 409.144L422.506 409.648C421.721 410.208 420.853 410.264 420.181 409.648 419.396 408.948 419.424 407.687 420.181 406.847 421.161 405.782 422.169 405.951 422.758 406.315L422.31 407.295Z" fill="#EAE6FF" fill-rule="nonzero" fill-opacity="1" transform="matrix(1.00001 0 0 1 -49.2234 -44.4215)"/><path d="M426.119 405.979 427.828 407.435 427.072 408.304 422.534 404.438 423.99 402.757C424.747 401.861 425.867 401.777 426.679 402.477 427.492 403.177 427.576 404.27 426.819 405.166L426.119 405.979ZM425.951 404.606C426.315 404.158 426.315 403.682 425.923 403.345 425.531 403.009 425.055 403.065 424.663 403.485L424.074 404.186 425.363 405.306 425.951 404.606Z" fill="#EAE6FF" fill-rule="nonzero" fill-opacity="1" transform="matrix(1.00001 0 0 1 -49.2234 -44.4215)"/><path d="M429.901 401.357 429.509 401.833 431.301 403.289 430.573 404.186 425.951 400.432 427.408 398.611C428.136 397.715 429.229 397.631 430.013 398.275 430.657 398.807 430.853 399.564 430.517 400.32L433.206 400.852 432.394 401.861 429.901 401.357ZM429.341 400.488C429.705 400.04 429.677 399.564 429.285 399.256 428.892 398.948 428.416 399.004 428.052 399.452L427.464 400.18 428.752 401.217 429.341 400.488Z" fill="#EAE6FF" fill-rule="nonzero" fill-opacity="1" transform="matrix(1.00001 0 0 1 -49.2234 -44.4215)"/><path d="M434.047 399.844 429.341 396.202 430.069 395.278 434.775 398.919 434.047 399.844Z" fill="#EAE6FF" fill-rule="nonzero" fill-opacity="1" transform="matrix(1.00001 0 0 1 -49.2234 -44.4215)"/><path d="M438.08 394.466 433.066 394.129 436.484 396.623 435.783 397.547 430.993 394.017 431.862 392.841 436.512 393.177 433.346 390.852 434.047 389.928 438.837 393.457 438.08 394.466Z" fill="#EAE6FF" fill-rule="nonzero" fill-opacity="1" transform="matrix(1.00001 0 0 1 -49.2234 -44.4215)"/><path d="M437.212 387.267 441.218 390.012 440.545 390.964 436.54 388.219 435.475 389.76 434.579 389.143 437.38 385.082 438.276 385.698 437.212 387.267Z" fill="#EAE6FF" fill-rule="nonzero" fill-opacity="1" transform="matrix(1.00001 0 0 1 -49.2234 -44.4215)"/><path d="M440.293 380.544C440.91 379.563 441.834 379.367 442.618 379.871 443.151 380.207 443.347 380.768 443.235 381.272 443.655 380.852 444.355 380.74 444.999 381.132 445.812 381.636 446.036 382.617 445.419 383.569L444.187 385.53 439.145 382.364 440.293 380.544ZM442.282 382C442.562 381.552 442.478 381.132 442.114 380.88 441.722 380.628 441.33 380.74 441.022 381.216L440.573 381.916 441.834 382.701 442.282 382ZM444.495 383.261C444.803 382.785 444.719 382.336 444.327 382.084 443.935 381.832 443.487 381.916 443.179 382.392L442.674 383.205 443.991 384.045 444.495 383.261Z" fill="#EAE6FF" fill-rule="nonzero" fill-opacity="1" transform="matrix(1.00001 0 0 1 -49.2234 -44.4215)"/><path d="M447.66 377.266 446.428 379.339 447.352 380.46 446.736 381.524 442.758 376.538 443.431 375.389 449.705 376.454 449.061 377.546 447.66 377.266ZM445.7 378.499 446.54 377.07 444.187 376.622 445.7 378.499Z" fill="#EAE6FF" fill-rule="nonzero" fill-opacity="1" transform="matrix(1.00001 0 0 1 -49.2234 -44.4215)"/><path d="M447.324 374.605C445.644 373.681 445.279 371.86 446.064 370.459 446.848 369.003 448.137 368.751 449.117 369.003L448.893 370.123C448.333 369.983 447.548 370.067 447.044 370.992 446.624 371.776 446.736 372.896 447.913 373.541 449.033 374.157 450.069 373.709 450.518 372.868 450.994 371.972 450.658 371.216 450.238 370.823L451.05 370.039C451.75 370.683 452.31 371.972 451.498 373.429 450.714 374.885 449.005 375.529 447.324 374.605Z" fill="#EAE6FF" fill-rule="nonzero" fill-opacity="1" transform="matrix(1.00001 0 0 1 -49.2234 -44.4215)"/><path d="M451.974 366.958 452.366 367.994 453.851 368.751 453.319 369.787 447.997 367.098 448.529 366.061 450.938 367.266 449.593 363.932 450.266 362.588 451.526 365.865 455.588 365.249 454.944 366.538 451.974 366.958Z" fill="#EAE6FF" fill-rule="nonzero" fill-opacity="1" transform="matrix(1.00001 0 0 1 -49.2234 -44.4215)"/><path d="M456.092 364.213 450.686 361.691 451.19 360.627 455.588 362.672 456.708 360.263 457.717 360.739 456.092 364.213Z" fill="#EAE6FF" fill-rule="nonzero" fill-opacity="1" transform="matrix(1.00001 0 0 1 -49.2234 -44.4215)"/><path d="M453.627 354.913C454.271 353.428 455.924 352.56 457.689 353.316 459.454 354.072 459.958 355.865 459.313 357.35 458.669 358.834 457.016 359.675 455.252 358.918 453.515 358.19 453.011 356.397 453.627 354.913ZM458.305 356.929C458.669 356.089 458.445 354.969 457.213 354.436 455.98 353.904 455.028 354.52 454.663 355.361 454.299 356.201 454.523 357.322 455.756 357.854 456.988 358.386 457.941 357.77 458.305 356.929Z" fill="#EAE6FF" fill-rule="nonzero" fill-opacity="1" transform="matrix(1.00001 0 0 1 -49.2234 -44.4215)"/><path d="M462.563 349.086 461.891 348.918C462.171 349.31 462.339 350.01 462.003 350.851 461.414 352.335 459.818 353.204 458.025 352.504 456.232 351.803 455.644 350.038 456.232 348.526 456.792 347.069 457.969 346.593 458.921 346.649L458.893 347.826C458.333 347.77 457.605 348.022 457.241 348.918 456.904 349.758 457.129 350.879 458.445 351.411 459.706 351.887 460.658 351.327 461.022 350.403 461.414 349.366 460.882 348.722 460.518 348.498L459.846 350.263 458.893 349.898 459.986 347.125 462.871 348.246 462.563 349.086Z" fill="#EAE6FF" fill-rule="nonzero" fill-opacity="1" transform="matrix(1.00001 0 0 1 -49.2234 -44.4215)"/><path d="M80.6307 359.961 85.2155 356.143 85.9684 357.047 81.3837 360.865Z" fill="#E6FCFF" fill-rule="nonzero" fill-opacity="1"/><path d="M138.744 405.614 135.774 408.22 137.119 403.738 136.167 402.673 131.685 406.595 132.441 407.463 135.634 404.662 134.234 409.508 135.018 410.404 139.5 406.483Z" fill="#E6FCFF" fill-rule="nonzero" fill-opacity="1" transform="matrix(1.00001 0 0 1 -49.2234 -44.4215)"/><path d="M140.789 413.346C140.284 413.598 139.444 413.71 138.744 412.954 138.099 412.253 137.987 411.133 138.912 410.264 139.892 409.34 141.013 409.592 141.629 410.236 142.329 410.993 142.189 411.749 141.881 412.253L142.889 412.813C143.422 411.973 143.59 410.685 142.469 409.48 141.377 408.304 139.5 408.107 138.127 409.396 136.755 410.685 136.811 412.533 137.959 413.738 139.108 414.97 140.508 414.83 141.321 414.354L140.789 413.346Z" fill="#E6FCFF" fill-rule="nonzero" fill-opacity="1" transform="matrix(1.00001 0 0 1 -49.2234 -44.4215)"/><path d="M146.755 416.651C147.483 415.923 147.539 414.83 146.699 414.018L145.046 412.365 140.845 416.567 141.657 417.379 143.282 415.755 143.702 416.175 142.917 418.612 143.842 419.536 144.654 416.903C145.354 417.351 146.167 417.239 146.755 416.651ZM144.654 415.755 143.982 415.082 145.158 413.906 145.831 414.578C146.251 414.998 146.251 415.475 145.915 415.839 145.551 416.175 145.074 416.175 144.654 415.755Z" fill="#E6FCFF" fill-rule="nonzero" fill-opacity="1" transform="matrix(1.00001 0 0 1 -49.2234 -44.4215)"/><path d="M147.343 419.536 149.024 421.133 149.752 420.377 148.044 418.78 148.996 417.8 150.873 419.564 151.601 418.752 148.912 416.203 144.794 420.517 147.511 423.094 148.268 422.31 146.391 420.517Z" fill="#E6FCFF" fill-rule="nonzero" fill-opacity="1" transform="matrix(1.00001 0 0 1 -49.2234 -44.4215)"/><path d="M156.363 423.01 152.217 425.083 153.702 420.685 152.554 419.676 148.632 424.13 149.444 424.859 152.189 421.749 150.733 426.007 151.461 426.651 155.523 424.635 152.75 427.772 153.59 428.528 157.54 424.074Z" fill="#E6FCFF" fill-rule="nonzero" fill-opacity="1" transform="matrix(1.00001 0 0 1 -49.2234 -44.4215)"/><path d="M157.4 428.444 159.192 429.929 159.837 429.145 158.044 427.66 158.912 426.595 160.901 428.248 161.601 427.408 158.716 425.027 154.935 429.621 157.792 432.002 158.492 431.161 156.503 429.509Z" fill="#E6FCFF" fill-rule="nonzero" fill-opacity="1" transform="matrix(1.00001 0 0 1 -49.2234 -44.4215)"/><path d="M165.719 430.629 163.31 433.738 163.758 429.116 162.61 428.22 158.968 432.926 159.893 433.654 162.47 430.293 162.022 435.307 163.002 436.035 166.644 431.329Z" fill="#E6FCFF" fill-rule="nonzero" fill-opacity="1" transform="matrix(1.00001 0 0 1 -49.2234 -44.4215)"/><path d="M171.406 434.803 167.428 431.918 166.784 432.814 168.296 433.907 165.439 437.856 166.392 438.529 169.249 434.607 170.761 435.699Z" fill="#E6FCFF" fill-rule="nonzero" fill-opacity="1" transform="matrix(1.00001 0 0 1 -49.2234 -44.4215)"/><path d="M176.084 437.884 170.201 441.302 171.042 441.862 176.924 438.444Z" fill="#E6FCFF" fill-rule="nonzero" fill-opacity="1" transform="matrix(1.00001 0 0 1 -49.2234 -44.4215)"/><path d="M181.35 441.33 179.529 440.209 176.42 445.279 178.241 446.4C179.697 447.296 181.322 447.016 182.302 445.391 183.283 443.767 182.779 442.198 181.35 441.33ZM181.266 444.775C180.594 445.868 179.585 445.98 178.745 445.448L177.961 444.971 179.949 441.722 180.734 442.198C181.574 442.73 181.938 443.655 181.266 444.775Z" fill="#E6FCFF" fill-rule="nonzero" fill-opacity="1" transform="matrix(1.00001 0 0 1 -49.2234 -44.4215)"/><path d="M186.168 448.193 186.672 447.296 184.655 446.148 185.328 444.971 187.569 446.232 188.101 445.279 184.851 443.431 181.91 448.613 185.132 450.462 185.692 449.509 183.451 448.249 184.151 447.044Z" fill="#E6FCFF" fill-rule="nonzero" fill-opacity="1" transform="matrix(1.00001 0 0 1 -49.2234 -44.4215)"/><path d="M193.731 448.305 190.174 451.302 190.594 446.652 189.249 445.952 186.448 451.218 187.457 451.722 189.361 448.053 188.969 452.535 189.81 452.983 193.283 450.098 191.322 453.767 192.331 454.299 195.132 449.033Z" fill="#E6FCFF" fill-rule="nonzero" fill-opacity="1" transform="matrix(1.00001 0 0 1 -49.2234 -44.4215)"/><path d="M198.942 450.742C197.485 450.041 195.664 450.49 194.852 452.226 194.039 453.963 194.824 455.644 196.28 456.344 197.737 457.044 199.558 456.596 200.37 454.86 201.211 453.151 200.426 451.442 198.942 450.742ZM199.306 454.355C198.717 455.56 197.597 455.728 196.757 455.336 195.916 454.944 195.356 453.963 195.944 452.759 196.532 451.554 197.653 451.386 198.465 451.778 199.306 452.142 199.894 453.123 199.306 454.355Z" fill="#E6FCFF" fill-rule="nonzero" fill-opacity="1" transform="matrix(1.00001 0 0 1 -49.2234 -44.4215)"/><path d="M350.963 405.586 346.901 398.751 349.338 397.295C351.271 396.146 353.456 396.538 354.745 398.695 356.033 400.852 355.333 402.953 353.4 404.102L350.963 405.586ZM352.616 402.925C353.736 402.253 354.24 401.02 353.372 399.536 352.504 398.051 351.159 397.911 350.038 398.555L348.974 399.2 351.579 403.569 352.616 402.925Z" fill="#FFFFFF" fill-rule="nonzero" fill-opacity="1" transform="matrix(1.00001 0 0 1 -49.2234 -44.4215)"/><path d="M360.963 397.155 358.302 398.948 358.778 400.824 357.434 401.749 355.501 393.457 356.985 392.449 363.932 397.323 362.532 398.275 360.963 397.155ZM357.938 397.491 359.759 396.258 357.182 394.382 357.938 397.491Z" fill="#FFFFFF" fill-rule="nonzero" fill-opacity="1" transform="matrix(1.00001 0 0 1 -49.2234 -44.4215)"/><path d="M365.137 396.398 360.403 390.012 361.663 389.087 366.398 395.474 365.137 396.398Z" fill="#FFFFFF" fill-rule="nonzero" fill-opacity="1" transform="matrix(1.00001 0 0 1 -49.2234 -44.4215)"/><path d="M368.246 394.073 363.288 387.855 364.493 386.902 368.526 391.944 371.3 389.732 372.224 390.88 368.246 394.073Z" fill="#FFFFFF" fill-rule="nonzero" fill-opacity="1" transform="matrix(1.00001 0 0 1 -49.2234 -44.4215)"/><path d="M367.07 384.857 368.442 383.653 371.86 384.857 371.132 381.328 372.448 380.179 373.373 385.502 375.585 388.023 374.409 389.031 372.196 386.51 367.07 384.857Z" fill="#FFFFFF" fill-rule="nonzero" fill-opacity="1" transform="matrix(1.00001 0 0 1 -49.2234 -44.4215)"/><path d="M379.843 376.09C379.479 375.838 378.751 375.613 378.023 376.342 377.49 376.874 377.49 377.574 377.882 377.938 378.191 378.247 378.639 378.303 379.115 377.938L380.039 377.294C381.244 376.454 382.476 376.566 383.261 377.35 384.129 378.219 384.297 379.787 383.009 381.104 381.524 382.617 379.927 382.308 379.031 381.608L379.759 380.319C380.376 380.824 381.244 380.936 382.028 380.123 382.617 379.535 382.645 378.919 382.224 378.527 381.888 378.191 381.384 378.191 380.88 378.555L379.955 379.199C378.891 379.927 377.714 379.927 376.874 379.087 375.866 378.107 375.978 376.454 377.042 375.361 378.387 373.989 379.731 374.269 380.516 374.773L379.843 376.09Z" fill="#FFFFFF" fill-rule="nonzero" fill-opacity="1" transform="matrix(1.00001 0 0 1 -49.2234 -44.4215)"/><path d="M382.897 375.361C380.992 373.681 381.048 371.188 382.448 369.591 383.905 367.938 385.642 367.966 386.818 368.582L386.202 369.983C385.502 369.619 384.465 369.535 383.569 370.571 382.785 371.468 382.589 372.98 383.961 374.157 385.222 375.277 386.706 374.997 387.547 374.045 388.443 373.036 388.219 371.944 387.799 371.3L389.087 370.515C389.816 371.552 390.152 373.373 388.695 375.053 387.21 376.706 384.801 377.042 382.897 375.361Z" fill="#FFFFFF" fill-rule="nonzero" fill-opacity="1" transform="matrix(1.00001 0 0 1 -49.2234 -44.4215)"/><path d="M391.188 366.958 390.684 367.602 393.093 369.479 392.141 370.711 385.866 365.837 387.771 363.4C388.723 362.168 390.18 362.056 391.244 362.896 392.113 363.568 392.393 364.605 391.973 365.613L395.586 366.257 394.522 367.63 391.188 366.958ZM390.404 365.781C390.88 365.165 390.824 364.521 390.292 364.129 389.76 363.708 389.143 363.82 388.639 364.437L387.855 365.417 389.592 366.762 390.404 365.781Z" fill="#FFFFFF" fill-rule="nonzero" fill-opacity="1" transform="matrix(1.00001 0 0 1 -49.2234 -44.4215)"/><path d="M394.382 363.176 390.18 360.235 391.076 358.974 395.194 361.832C396.062 362.42 396.819 362.252 397.351 361.495 397.883 360.711 397.771 359.927 396.903 359.339L392.785 356.481 393.681 355.221 397.883 358.162C399.48 359.282 399.564 360.991 398.583 362.392 397.631 363.764 395.978 364.297 394.382 363.176Z" fill="#FFFFFF" fill-rule="nonzero" fill-opacity="1" transform="matrix(1.00001 0 0 1 -49.2234 -44.4215)"/><path d="M405.278 351.523 400.488 348.666 404.102 353.484 403.429 354.576 397.519 353.708 402.253 356.537 401.497 357.798 394.69 353.708 395.726 351.971 401.861 352.868 398.135 347.91 399.228 346.089 406.035 350.179 405.278 351.523Z" fill="#FFFFFF" fill-rule="nonzero" fill-opacity="1" transform="matrix(1.00001 0 0 1 -49.2234 -44.4215)"/><path d="M424.158 153.142C425.615 151.909 427.464 152.217 428.5 153.422 429.565 154.683 429.369 155.971 428.78 156.783L427.8 156.167C428.136 155.691 428.332 154.935 427.66 154.15 427.072 153.478 425.979 153.17 424.943 154.066 423.99 154.879 424.018 156.027 424.663 156.755 425.335 157.54 426.147 157.484 426.679 157.232L427.128 158.268C426.287 158.688 424.887 158.772 423.794 157.484 422.702 156.195 422.73 154.374 424.158 153.142Z" fill="#E3FCEF" fill-rule="nonzero" fill-opacity="1" transform="matrix(1.00001 0 0 1 -49.2234 -44.4215)"/><path d="M382.56 118.547 381.356 120.424 380.376 119.808 383.597 114.793 385.474 115.998C386.454 116.642 386.706 117.707 386.118 118.631 385.53 119.555 384.465 119.779 383.457 119.135L382.56 118.547ZM383.877 118.211C384.353 118.519 384.857 118.435 385.11 117.987 385.39 117.539 385.278 117.062 384.773 116.754L383.989 116.25 383.065 117.679 383.877 118.211Z" fill="#E3FCEF" fill-rule="nonzero" fill-opacity="1" transform="matrix(1.00001 0 0 1 -49.2234 -44.4215)"/><path d="M387.519 121.768 387.014 121.432 385.726 123.337 384.773 122.693 388.135 117.763 390.068 119.079C391.02 119.723 391.188 120.816 390.6 121.656 390.124 122.357 389.367 122.581 388.611 122.329L388.303 125.074 387.238 124.345 387.519 121.768ZM388.359 121.124C388.835 121.46 389.311 121.376 389.592 120.956 389.872 120.536 389.788 120.088 389.283 119.751L388.499 119.219 387.575 120.592 388.359 121.124Z" fill="#E3FCEF" fill-rule="nonzero" fill-opacity="1" transform="matrix(1.00001 0 0 1 -49.2234 -44.4215)"/><path d="M394.97 122.385C396.286 123.337 396.763 125.158 395.614 126.698 394.494 128.239 392.617 128.351 391.3 127.399 389.984 126.446 389.535 124.626 390.656 123.085 391.804 121.544 393.681 121.432 394.97 122.385ZM391.973 126.474C392.729 127.007 393.849 127.063 394.662 125.97 395.446 124.878 395.082 123.813 394.326 123.281 393.597 122.749 392.449 122.693 391.664 123.785 390.852 124.878 391.244 125.942 391.973 126.474Z" fill="#E3FCEF" fill-rule="nonzero" fill-opacity="1" transform="matrix(1.00001 0 0 1 -49.2234 -44.4215)"/><path d="M394.774 129.808 398.443 125.13 400.124 126.446C401.469 127.483 401.749 129.136 400.6 130.62 399.452 132.105 397.771 132.189 396.454 131.152L394.774 129.808ZM397.099 130.256C397.855 130.844 398.892 130.872 399.676 129.864 400.488 128.855 400.208 127.875 399.452 127.259L398.723 126.67 396.37 129.668 397.099 130.256Z" fill="#E3FCEF" fill-rule="nonzero" fill-opacity="1" transform="matrix(1.00001 0 0 1 -49.2234 -44.4215)"/><path d="M400.992 132.021 403.457 129.079 404.354 129.836 401.945 132.721C401.441 133.309 401.525 133.926 402.029 134.346 402.561 134.794 403.149 134.766 403.654 134.15L406.063 131.264 406.959 132.021 404.494 134.962C403.569 136.083 402.281 136.026 401.301 135.214 400.32 134.402 400.04 133.141 400.992 132.021Z" fill="#E3FCEF" fill-rule="nonzero" fill-opacity="1" transform="matrix(1.00001 0 0 1 -49.2234 -44.4215)"/><path d="M405.979 135.074C407.239 133.645 409.116 133.729 410.32 134.794 411.553 135.886 411.497 137.203 411.049 138.099L410.012 137.623C410.292 137.091 410.376 136.335 409.592 135.634 408.92 135.046 407.799 134.878 406.903 135.886 406.063 136.839 406.259 137.959 406.959 138.576 407.715 139.248 408.528 139.08 409.004 138.772L409.592 139.752C408.808 140.284 407.435 140.536 406.175 139.416 404.942 138.323 404.69 136.503 405.979 135.074Z" fill="#E3FCEF" fill-rule="nonzero" fill-opacity="1" transform="matrix(1.00001 0 0 1 -49.2234 -44.4215)"/><path d="M414.242 140.116 410.881 143.646 410.04 142.833 413.402 139.304 412.029 138.015 412.785 137.231 416.371 140.62 415.615 141.405 414.242 140.116Z" fill="#E3FCEF" fill-rule="nonzero" fill-opacity="1" transform="matrix(1.00001 0 0 1 -49.2234 -44.4215)"/><path d="M420.349 144.626C421.161 145.467 421.133 146.391 420.461 147.035 420.013 147.455 419.396 147.539 418.948 147.315 419.256 147.82 419.2 148.548 418.668 149.052 417.968 149.724 416.959 149.696 416.203 148.884L414.606 147.231 418.892 143.086 420.349 144.626ZM416.707 148.072C417.099 148.464 417.548 148.52 417.884 148.184 418.22 147.848 418.248 147.399 417.856 147.007L417.183 146.307 416.063 147.399 416.707 148.072ZM418.444 146.223C418.808 146.615 419.256 146.615 419.564 146.307 419.873 145.999 419.901 145.579 419.508 145.186L418.948 144.598 417.884 145.635 418.444 146.223Z" fill="#E3FCEF" fill-rule="nonzero" fill-opacity="1" transform="matrix(1.00001 0 0 1 -49.2234 -44.4215)"/><path d="M421.553 152.638 419.929 150.845 418.584 151.405 417.744 150.509 423.682 148.184 424.579 149.164 421.721 154.851 420.881 153.926 421.553 152.638ZM420.965 150.425 422.085 151.629 423.206 149.5 420.965 150.425Z" fill="#E3FCEF" fill-rule="nonzero" fill-opacity="1" transform="matrix(1.00001 0 0 1 -49.2234 -44.4215)"/><path d="M429.509 160.285 428.416 160.229 427.128 161.265 426.399 160.369 431.049 156.643 431.778 157.54 429.677 159.22 433.262 159.389 434.215 160.565 430.713 160.341 429.565 164.291 428.668 163.142 429.509 160.285Z" fill="#E3FCEF" fill-rule="nonzero" fill-opacity="1" transform="matrix(1.00001 0 0 1 -49.2234 -44.4215)"/><path d="M430.125 165.075 434.887 161.489 435.587 162.414 431.722 165.327 433.318 167.456 432.422 168.128 430.125 165.075Z" fill="#E3FCEF" fill-rule="nonzero" fill-opacity="1" transform="matrix(1.00001 0 0 1 -49.2234 -44.4215)"/><path d="M439.481 167.512C440.405 168.829 440.293 170.705 438.725 171.798 437.156 172.918 435.363 172.414 434.411 171.098 433.486 169.781 433.598 167.904 435.167 166.812 436.736 165.691 438.557 166.195 439.481 167.512ZM435.335 170.453C435.867 171.21 436.932 171.602 438.024 170.817 439.117 170.033 439.089 168.913 438.557 168.156 438.024 167.4 436.96 167.008 435.867 167.792 434.775 168.576 434.803 169.697 435.335 170.453Z" fill="#E3FCEF" fill-rule="nonzero" fill-opacity="1" transform="matrix(1.00001 0 0 1 -49.2234 -44.4215)"/><path d="M439.369 178.213 439.901 177.764C439.425 177.764 438.753 177.484 438.276 176.728 437.408 175.383 437.632 173.591 439.229 172.554 440.826 171.49 442.618 172.05 443.515 173.395 444.383 174.711 444.075 175.916 443.487 176.672L442.562 175.972C442.926 175.551 443.151 174.795 442.646 173.983 442.142 173.226 441.106 172.75 439.929 173.535 438.809 174.263 438.697 175.383 439.257 176.224 439.873 177.148 440.714 177.092 441.106 176.924L440.069 175.355 440.91 174.795 442.534 177.288 439.929 178.997 439.369 178.213Z" fill="#E3FCEF" fill-rule="nonzero" fill-opacity="1" transform="matrix(1.00001 0 0 1 -49.2234 -44.4215)"/><path d="M309.365 492.984C309.477 493.292 309.813 493.768 310.57 493.656 311.13 493.572 311.438 493.18 311.382 492.788 311.326 492.452 311.102 492.228 310.654 492.2L309.813 492.172C308.721 492.116 308.048 491.499 307.908 490.659 307.768 489.763 308.413 488.726 309.785 488.53 311.354 488.306 312.194 489.23 312.39 490.043L311.354 490.463C311.214 489.875 310.738 489.426 309.897 489.538 309.281 489.622 308.973 489.987 309.057 490.407 309.113 490.743 309.393 490.967 309.869 490.995L310.71 491.051C311.69 491.107 312.362 491.639 312.502 492.508 312.642 493.544 311.83 494.497 310.71 494.637 309.281 494.833 308.609 494.048 308.385 493.404L309.365 492.984Z" fill="#2684FF" fill-rule="nonzero" fill-opacity="1" transform="matrix(1.00001 0 0 1 -49.2234 -44.4215)"/><path d="M305.303 491.499 305.051 489.258 306.2 489.118 306.872 495.029 304.659 495.281C303.482 495.421 302.614 494.721 302.502 493.656 302.39 492.592 303.062 491.723 304.239 491.583L305.303 491.499ZM304.491 492.592C303.903 492.648 303.595 493.04 303.651 493.544 303.707 494.076 304.099 494.357 304.687 494.301L305.583 494.188 305.387 492.508 304.491 492.592Z" fill="#2684FF" fill-rule="nonzero" fill-opacity="1" transform="matrix(1.00001 0 0 1 -49.2234 -44.4215)"/><path d="M299.085 492.2 299.701 492.144 299.505 489.847 300.681 489.735 301.214 495.673 298.888 495.869C297.74 495.981 296.928 495.253 296.844 494.216 296.76 493.376 297.208 492.704 297.964 492.424L296.479 490.099 297.768 489.987 299.085 492.2ZM298.832 493.208C298.244 493.264 297.936 493.628 297.964 494.104 298.02 494.609 298.384 494.917 298.973 494.861L299.897 494.777 299.757 493.124 298.832 493.208Z" fill="#2684FF" fill-rule="nonzero" fill-opacity="1" transform="matrix(1.00001 0 0 1 -49.2234 -44.4215)"/><path d="M294.883 490.211 295.275 496.149 294.098 496.233 293.706 490.295 294.883 490.211Z" fill="#2684FF" fill-rule="nonzero" fill-opacity="1" transform="matrix(1.00001 0 0 1 -49.2234 -44.4215)"/><path d="M287.964 490.603 290.849 494.721 290.681 490.491 291.829 490.435 292.082 496.373 290.625 496.429 287.992 492.592 288.16 496.541 287.011 496.598 286.759 490.659 287.964 490.603Z" fill="#2684FF" fill-rule="nonzero" fill-opacity="1" transform="matrix(1.00001 0 0 1 -49.2234 -44.4215)"/><path d="M282.473 495.589 282.389 490.743 283.566 490.715 283.65 495.561 285.527 495.533 285.555 496.626 280.625 496.71 280.597 495.617 282.473 495.589Z" fill="#2684FF" fill-rule="nonzero" fill-opacity="1" transform="matrix(1.00001 0 0 1 -49.2234 -44.4215)"/><path d="M276.843 493.712C276.787 495.617 275.33 496.766 273.734 496.738 272.081 496.682 271.269 495.645 271.073 494.693L272.165 494.385C272.305 494.973 272.725 495.589 273.762 495.645 274.658 495.673 275.611 495.057 275.639 493.712 275.667 492.452 274.798 491.723 273.846 491.695 272.837 491.667 272.305 492.312 272.137 492.872L271.073 492.508C271.325 491.611 272.221 490.519 273.874 490.575 275.526 490.575 276.899 491.807 276.843 493.712Z" fill="#2684FF" fill-rule="nonzero" fill-opacity="1" transform="matrix(1.00001 0 0 1 -49.2234 -44.4215)"/><path d="M270.148 496.485 268.776 496.401 267.571 493.964 266.114 496.233 264.826 496.149 267.123 492.816 267.263 490.323 268.411 490.379 268.271 492.872 270.148 496.485Z" fill="#2684FF" fill-rule="nonzero" fill-opacity="1" transform="matrix(1.00001 0 0 1 -49.2234 -44.4215)"/><path d="M264.406 493.152C264.238 495.057 262.697 496.121 261.128 495.981 259.476 495.841 258.719 494.749 258.579 493.768L259.7 493.516C259.784 494.104 260.204 494.777 261.24 494.861 262.137 494.945 263.117 494.385 263.229 493.04 263.341 491.779 262.501 490.995 261.548 490.911 260.54 490.827 259.98 491.443 259.784 491.976L258.719 491.555C259.027 490.659 259.98 489.622 261.632 489.763 263.285 489.959 264.574 491.275 264.406 493.152Z" fill="#2684FF" fill-rule="nonzero" fill-opacity="1" transform="matrix(1.00001 0 0 1 -49.2234 -44.4215)"/><path d="M257.431 489.538 256.758 495.449 255.61 495.309 256.17 490.491 253.537 490.183 253.677 489.09 257.431 489.538Z" fill="#2684FF" fill-rule="nonzero" fill-opacity="1" transform="matrix(1.00001 0 0 1 -49.2234 -44.4215)"/><path d="M252.248 488.922 251.408 494.833 247.71 494.301 247.851 493.208 250.4 493.572 250.596 492.228 248.299 491.891 248.439 490.855 250.736 491.191 250.932 489.819 248.383 489.454 248.523 488.362 252.248 488.922Z" fill="#2684FF" fill-rule="nonzero" fill-opacity="1" transform="matrix(1.00001 0 0 1 -49.2234 -44.4215)"/><path d="M250.876 67.9012C250.764 67.5931 250.428 67.1169 249.671 67.2289 249.111 67.3129 248.803 67.7051 248.859 68.0973 248.915 68.4334 249.139 68.6575 249.587 68.6855L250.428 68.7135C251.52 68.7696 252.192 69.3858 252.332 70.2262 252.473 71.1226 251.828 72.159 250.456 72.3551 248.887 72.5792 248.047 71.6548 247.851 70.8425L248.887 70.4223C249.027 71.0105 249.503 71.4587 250.344 71.3467 250.96 71.2626 251.268 70.8985 251.184 70.4783 251.128 70.1422 250.848 69.9181 250.372 69.89L249.531 69.834C248.551 69.778 247.879 69.2458 247.739 68.3774 247.598 67.341 248.411 66.3885 249.531 66.2485 250.96 66.0524 251.632 66.8367 251.856 67.481L250.876 67.9012Z" fill="#2684FF" fill-rule="nonzero" fill-opacity="1" transform="matrix(1.00001 0 0 1 -49.2234 -44.4215)"/><path d="M254.938 69.3858 255.19 71.6268 254.041 71.7669 253.369 65.8563 255.582 65.6042C256.758 65.4641 257.627 66.1644 257.739 67.2289 257.851 68.2934 257.179 69.1617 256.002 69.3018L254.938 69.3858ZM255.75 68.2654C256.338 68.2093 256.646 67.8172 256.59 67.3129 256.534 66.7807 256.142 66.5006 255.554 66.5566L254.657 66.6687 254.854 68.3494 255.75 68.2654Z" fill="#2684FF" fill-rule="nonzero" fill-opacity="1" transform="matrix(1.00001 0 0 1 -49.2234 -44.4215)"/><path d="M261.156 68.6855 260.54 68.7416 260.736 71.0385 259.56 71.1506 259.027 65.212 261.352 65.016C262.501 64.9039 263.313 65.6322 263.397 66.6687 263.481 67.509 263.033 68.1813 262.277 68.4614L263.761 70.7864 262.473 70.8985 261.156 68.6855ZM261.408 67.6491C261.997 67.5931 262.305 67.2289 262.277 66.7527 262.221 66.2485 261.857 65.9403 261.268 65.9964L260.344 66.0804 260.484 67.7331 261.408 67.6491Z" fill="#2684FF" fill-rule="nonzero" fill-opacity="1" transform="matrix(1.00001 0 0 1 -49.2234 -44.4215)"/><path d="M265.358 70.6464 264.966 64.7078 266.142 64.6238 266.535 70.5623 265.358 70.6464Z" fill="#2684FF" fill-rule="nonzero" fill-opacity="1" transform="matrix(1.00001 0 0 1 -49.2234 -44.4215)"/><path d="M272.277 70.2822 269.392 66.1644 269.56 70.3943 268.411 70.4503 268.159 64.5117 269.616 64.4557 272.249 68.2934 272.081 64.3437 273.229 64.2876 273.482 70.2262 272.277 70.2822Z" fill="#2684FF" fill-rule="nonzero" fill-opacity="1" transform="matrix(1.00001 0 0 1 -49.2234 -44.4215)"/><path d="M277.767 65.2961 277.851 70.1422 276.675 70.1702 276.591 65.3241 274.714 65.3521 274.686 64.2596 279.616 64.1756 279.644 65.2681 277.767 65.2961Z" fill="#2684FF" fill-rule="nonzero" fill-opacity="1" transform="matrix(1.00001 0 0 1 -49.2234 -44.4215)"/><path d="M283.398 67.1729C283.454 65.2681 284.91 64.1196 286.507 64.1476 288.16 64.2036 288.972 65.24 289.168 66.1925L288.076 66.5006C287.936 65.9123 287.516 65.2961 286.479 65.24 285.583 65.212 284.63 65.8283 284.602 67.1729 284.574 68.4334 285.443 69.1617 286.395 69.1897 287.404 69.2178 287.936 68.5735 288.104 68.0132L289.168 68.3774C288.916 69.2738 288.02 70.3662 286.367 70.3102 284.714 70.3102 283.342 69.0777 283.398 67.1729Z" fill="#2684FF" fill-rule="nonzero" fill-opacity="1" transform="matrix(1.00001 0 0 1 -49.2234 -44.4215)"/><path d="M290.093 64.3997 291.465 64.4837 292.67 66.9208 294.126 64.6518 295.415 64.7358 293.118 68.0693 292.978 70.5623 291.829 70.5063 291.97 68.0132 290.093 64.3997Z" fill="#2684FF" fill-rule="nonzero" fill-opacity="1" transform="matrix(1.00001 0 0 1 -49.2234 -44.4215)"/><path d="M295.835 67.7331C296.003 65.8283 297.544 64.7638 299.113 64.9039 300.765 65.044 301.522 66.1364 301.662 67.1169L300.541 67.369C300.457 66.7807 300.037 66.1084 299.001 66.0244 298.104 65.9403 297.124 66.5006 297.012 67.8452 296.9 69.1057 297.74 69.89 298.692 69.9741 299.701 70.0581 300.261 69.4419 300.457 68.9096L301.522 69.3298C301.214 70.2262 300.261 71.2626 298.608 71.1226 296.956 70.9265 295.667 69.6099 295.835 67.7331Z" fill="#2684FF" fill-rule="nonzero" fill-opacity="1" transform="matrix(1.00001 0 0 1 -49.2234 -44.4215)"/><path d="M302.81 71.3467 303.482 65.4361 304.631 65.5762 304.071 70.3943 306.704 70.7024 306.564 71.7949 302.81 71.3467Z" fill="#2684FF" fill-rule="nonzero" fill-opacity="1" transform="matrix(1.00001 0 0 1 -49.2234 -44.4215)"/><path d="M307.992 71.9629 308.833 66.0524 312.53 66.5846 312.39 67.6771 309.841 67.3129 309.645 68.6575 311.942 68.9937 311.802 70.0301 309.505 69.694 309.309 71.0666 311.858 71.4307 311.718 72.5232 307.992 71.9629Z" fill="#2684FF" fill-rule="nonzero" fill-opacity="1" transform="matrix(1.00001 0 0 1 -49.2234 -44.4215)"/></g></g></g></svg>